<svg width="20" height="20" viewBox="0 0 20 20" fill="none" xmlns="http://www.w3.org/2000/svg">
<mask id="path-1-inside-1" fill="white">
<path d="M9.91219 20.0002C9.80302 20.0002 9.69634 19.9569 9.61717 19.8785C9.51883 19.7802 9.4755 19.6385 9.503 19.5027L10.0922 16.5567C10.1089 16.475 10.1472 16.4008 10.2064 16.3433L16.6884 9.86136C17.1751 9.37467 17.9693 9.37467 18.456 9.86136L19.6344 11.0397C20.1219 11.5273 20.1219 12.3198 19.6344 12.8073L13.1524 19.2893C13.0949 19.3477 13.0207 19.3868 12.939 19.4035L9.99303 19.9927C9.96636 19.9977 9.93886 20.0002 9.91219 20.0002ZM10.8856 16.8425L10.4439 19.0518L12.6532 18.6101L19.046 12.2173C19.2085 12.0548 19.2085 11.7906 19.046 11.6281L17.8676 10.4497C17.7051 10.2872 17.4409 10.2872 17.2784 10.4497L10.8856 16.8425ZM12.8582 18.9943H12.8665H12.8582Z"/>
</mask>
<path d="M9.91219 20.0002C9.80302 20.0002 9.69634 19.9569 9.61717 19.8785C9.51883 19.7802 9.4755 19.6385 9.503 19.5027L10.0922 16.5567C10.1089 16.475 10.1472 16.4008 10.2064 16.3433L16.6884 9.86136C17.1751 9.37467 17.9693 9.37467 18.456 9.86136L19.6344 11.0397C20.1219 11.5273 20.1219 12.3198 19.6344 12.8073L13.1524 19.2893C13.0949 19.3477 13.0207 19.3868 12.939 19.4035L9.99303 19.9927C9.96636 19.9977 9.93886 20.0002 9.91219 20.0002ZM10.8856 16.8425L10.4439 19.0518L12.6532 18.6101L19.046 12.2173C19.2085 12.0548 19.2085 11.7906 19.046 11.6281L17.8676 10.4497C17.7051 10.2872 17.4409 10.2872 17.2784 10.4497L10.8856 16.8425ZM12.8582 18.9943H12.8665H12.8582Z" fill="white"/>
<path d="M9.61717 19.8785L-5.46776 34.9635L-5.42785 35.0034L-5.38774 35.0431L9.61717 19.8785ZM9.503 19.5027L30.4121 23.7358L30.4171 23.7112L30.4221 23.6865L9.503 19.5027ZM10.0922 16.5567L-10.8103 12.2909L-10.8187 12.3319L-10.8269 12.3729L10.0922 16.5567ZM10.2064 16.3433L25.0743 31.6422L25.1836 31.536L25.2913 31.4283L10.2064 16.3433ZM16.6884 9.86136L31.7733 24.9463L16.6884 9.86136ZM18.456 9.86136L33.5409 -5.2236L33.5409 -5.2236L18.456 9.86136ZM19.6344 11.0397L4.54941 26.1247L4.54942 26.1247L19.6344 11.0397ZM19.6344 12.8073L34.7193 27.8923L34.7193 27.8923L19.6344 12.8073ZM13.1524 19.2893L-1.93258 4.20436L-1.98684 4.25863L-2.04071 4.31328L13.1524 19.2893ZM12.939 19.4035L17.1228 40.3226L17.1638 40.3143L17.2048 40.306L12.939 19.4035ZM9.99303 19.9927L13.9245 40.9606L14.0508 40.9369L14.1768 40.9117L9.99303 19.9927ZM10.8856 16.8425L-4.19936 1.75758L-8.76732 6.32553L-10.0338 12.6602L10.8856 16.8425ZM10.4439 19.0518L-10.4755 14.8695L-16.7479 46.2436L14.6262 39.9712L10.4439 19.0518ZM12.6532 18.6101L16.8354 39.5295L23.1701 38.263L27.7381 33.6951L12.6532 18.6101ZM19.046 11.6281L3.96105 26.7131L3.96105 26.7131L19.046 11.6281ZM17.8676 10.4497L32.9525 -4.63523L32.9525 -4.63524L17.8676 10.4497ZM17.2784 10.4497L2.19346 -4.63524L2.19346 -4.63524L17.2784 10.4497ZM9.91219 -1.33314C15.4132 -1.33314 20.701 0.834151 24.6221 4.71396L-5.38774 35.0431C-1.30831 39.0796 4.19286 41.3335 9.91219 41.3335V-1.33314ZM24.7021 4.79356C29.6002 9.6916 31.8203 16.7805 30.4121 23.7358L-11.4061 15.2695C-12.8693 22.4965 -10.5625 29.8688 -5.46776 34.9635L24.7021 4.79356ZM30.4221 23.6865L31.0113 20.7405L-10.8269 12.3729L-11.4161 15.3189L30.4221 23.6865ZM30.9947 20.8225C30.2319 24.5602 28.3572 28.4519 25.0743 31.6422L-4.66155 1.04445C-8.06275 4.34984 -10.0142 8.38984 -10.8103 12.2909L30.9947 20.8225ZM25.2913 31.4283L31.7733 24.9463L1.60343 -5.2236L-4.87856 1.25839L25.2913 31.4283ZM31.7733 24.9463C23.9288 32.7908 11.2155 32.7908 3.37102 24.9463L33.5409 -5.2236C24.723 -14.0415 10.4213 -14.0415 1.60343 -5.2236L31.7733 24.9463ZM3.37102 24.9463L4.54941 26.1247L34.7193 -4.0452L33.5409 -5.2236L3.37102 24.9463ZM4.54942 26.1247C-3.29426 18.281 -3.29426 5.56604 4.54942 -2.27762L34.7193 27.8923C43.538 19.0736 43.538 4.7735 34.7193 -4.04521L4.54942 26.1247ZM4.54942 -2.27762L-1.93258 4.20436L28.2373 34.3743L34.7193 27.8923L4.54942 -2.27762ZM-2.04071 4.31328C1.01939 1.20883 4.81093 -0.710776 8.6732 -1.49899L17.2048 40.306C21.2304 39.4844 25.1703 37.4865 28.3454 34.2654L-2.04071 4.31328ZM8.75521 -1.51556L5.80923 -0.926368L14.1768 40.9117L17.1228 40.3226L8.75521 -1.51556ZM6.06154 -0.975252C7.34848 -1.21655 8.63752 -1.33314 9.91219 -1.33314V41.3335C11.2402 41.3335 12.5842 41.2119 13.9245 40.9606L6.06154 -0.975252ZM-10.0338 12.6602L-10.4755 14.8695L31.3632 23.2341L31.8049 21.0248L-10.0338 12.6602ZM14.6262 39.9712L16.8354 39.5295L8.47088 -2.30924L6.2616 -1.86755L14.6262 39.9712ZM27.7381 33.6951L34.1309 27.3023L3.96105 -2.86765L-2.43177 3.52517L27.7381 33.6951ZM34.1309 27.3023C42.6246 18.8086 42.6246 5.03685 34.1309 -3.45685L3.96105 26.7131C-4.20764 18.5444 -4.20764 5.30103 3.96105 -2.86765L34.1309 27.3023ZM34.1309 -3.45684L32.9525 -4.63523L2.78266 25.5347L3.96105 26.7131L34.1309 -3.45684ZM32.9525 -4.63524C24.4588 -13.1289 10.6872 -13.1289 2.19346 -4.63524L32.3633 25.5347C24.1947 33.7033 10.9513 33.7033 2.78266 25.5347L32.9525 -4.63524ZM2.19346 -4.63524L-4.19936 1.75758L25.9705 31.9275L32.3633 25.5347L2.19346 -4.63524ZM12.8582 40.3276H12.8665V-2.33903H12.8582V40.3276ZM12.8665 -2.33903H12.8582V40.3276H12.8665V-2.33903Z" fill="white" mask="url(#path-1-inside-1)"/>
<path d="M0.833375 9.67489V12.745C0.550277 12.6611 0.272293 12.5653 0 12.4582L0 10.5726C0.25984 10.257 0.538185 9.95722 0.833375 9.67489Z" fill="white" stroke="white" stroke-width="21.3333"/>
<path d="M13.7507 9.99965C13.5207 9.99965 13.334 9.81297 13.334 9.58296V4.58271C13.334 3.8935 12.7732 3.33264 12.084 3.33264H10.4172C10.1872 3.33264 10.0005 3.14597 10.0005 2.91596C10.0005 2.68594 10.1872 2.49927 10.4172 2.49927H12.084C12.5522 2.49927 12.9848 2.65438 13.333 2.91596C13.4912 3.03474 13.6319 3.17548 13.7507 3.33361C14.0123 3.68184 14.1674 4.11442 14.1674 4.58271V9.58296C14.1674 9.81297 13.9807 9.99965 13.7507 9.99965Z" fill="white" stroke="white" stroke-width="21.3333"/>
<path d="M10.8339 2.08246V2.49915H10.4172H10.0005H9.58385H9.13698H9.12549H8.75047C8.62542 2.49915 8.51318 2.44397 8.43678 2.35665C8.37266 2.28336 8.33378 2.18742 8.33378 2.08246C8.33378 1.99672 8.3251 1.91296 8.30857 1.83202C8.19224 1.26239 7.68718 0.832399 7.08372 0.832399C6.48026 0.832399 5.97519 1.26239 5.85887 1.83202C5.84234 1.91296 5.83366 1.99672 5.83366 2.08246C5.83366 2.18742 5.79478 2.28336 5.73066 2.35665C5.65426 2.44397 5.54202 2.49915 5.41697 2.49915H5.04195H5.03046H4.58359H4.1669H3.75021H3.33353L3.33353 2.08246C3.33353 1.85245 3.5202 1.66577 3.75021 1.66577H4.1669H4.58359H5.04195C5.1045 1.35843 5.23498 1.07551 5.41697 0.833367C5.79752 0.32702 6.40324 -0.000976562 7.08372 -0.000976562C7.7642 -0.000976562 8.36992 0.32702 8.75047 0.833367C8.93245 1.07551 9.06294 1.35843 9.12549 1.66577H9.58385H10.0005H10.4172C10.6472 1.66577 10.8339 1.85245 10.8339 2.08246Z" fill="white" stroke="white" stroke-width="21.3333"/>
<path d="M2.91681 7.49939C2.6868 7.49939 2.50012 7.31272 2.50012 7.0827C2.50012 6.85269 2.6868 6.66602 2.91681 6.66602H11.2506C11.4806 6.66602 11.6673 6.85269 11.6673 7.0827C11.6673 7.31272 11.4806 7.49939 11.2506 7.49939H2.91681Z" fill="white" stroke="white" stroke-width="21.3333"/>
<path d="M2.91681 9.99939C2.6868 9.99939 2.50012 9.81271 2.50012 9.5827C2.50012 9.35269 2.6868 9.16602 2.91681 9.16602H11.2506C11.4806 9.16602 11.6673 9.35269 11.6673 9.5827C11.6673 9.81271 11.4806 9.99939 11.2506 9.99939H2.91681Z" fill="white" stroke="white" stroke-width="21.3333"/>
<path d="M2.91681 12.4996C2.6868 12.4996 2.50012 12.313 2.50012 12.0829C2.50012 11.8529 2.6868 11.6663 2.91681 11.6663H11.2506C11.4806 11.6663 11.6673 11.8529 11.6673 12.0829C11.6673 12.313 11.4806 12.4996 11.2506 12.4996H2.91681Z" fill="white" stroke="white" stroke-width="21.3333"/>
</svg>
